<svg width="1400" height="1400" viewBox="0 0 1400 1400" fill="none" xmlns="http://www.w3.org/2000/svg">
<g filter="url(#filter0_di_1_3)">
<rect x="200" y="200" width="1000" height="1000" rx="40" fill="white" shape-rendering="crispEdges"/>
<path d="M488.36 558.4C473.64 558.4 461.4 555.68 451.64 550.24C442.04 544.8 434.76 537.2 429.8 527.44C424.84 517.68 422.12 506.32 421.64 493.36C421.48 486.8 421.4 479.76 421.4 472.24C421.4 464.72 421.48 457.52 421.64 450.64C422.12 437.68 424.84 426.32 429.8 416.56C434.76 406.8 442.04 399.2 451.64 393.76C461.4 388.32 473.64 385.6 488.36 385.6C499.4 385.6 509.08 387.12 517.4 390.16C525.72 393.2 532.6 397.28 538.04 402.4C543.64 407.52 547.88 413.28 550.76 419.68C553.64 425.92 555.24 432.4 555.56 439.12C555.72 440.56 555.24 441.76 554.12 442.72C553.16 443.68 551.96 444.16 550.52 444.16H537.32C535.88 444.16 534.6 443.76 533.48 442.96C532.52 442.16 531.8 440.72 531.32 438.64C528.6 426.16 523.48 417.6 515.96 412.96C508.6 408.32 499.32 406 488.12 406C475.32 406 465.16 409.68 457.64 417.04C450.12 424.24 446.04 435.84 445.4 451.84C444.92 464.96 444.92 478.4 445.4 492.16C446.04 508.16 450.12 519.84 457.64 527.2C465.16 534.4 475.32 538 488.12 538C499.32 538 508.6 535.68 515.96 531.04C523.48 526.4 528.6 517.84 531.32 505.36C531.8 503.28 532.52 501.84 533.48 501.04C534.6 500.24 535.88 499.84 537.32 499.84H550.52C551.96 499.84 553.16 500.32 554.12 501.28C555.24 502.24 555.72 503.44 555.56 504.88C555.24 511.6 553.64 518.16 550.76 524.56C547.88 530.8 543.64 536.48 538.04 541.6C532.6 546.72 525.72 550.8 517.4 553.84C509.08 556.88 499.4 558.4 488.36 558.4ZM593.244 556C591.484 556 590.124 555.52 589.164 554.56C588.204 553.44 587.724 552.08 587.724 550.48V393.52C587.724 391.92 588.204 390.64 589.164 389.68C590.124 388.56 591.484 388 593.244 388H605.964C607.564 388 608.844 388.56 609.804 389.68C610.924 390.64 611.484 391.92 611.484 393.52V550.48C611.484 552.08 610.924 553.44 609.804 554.56C608.844 555.52 607.564 556 605.964 556H593.244ZM642.069 556C640.789 556 639.669 555.52 638.709 554.56C637.749 553.6 637.269 552.48 637.269 551.2C637.269 550.4 637.349 549.52 637.509 548.56L697.029 393.28C697.669 391.68 698.549 390.4 699.669 389.44C700.789 388.48 702.469 388 704.709 388H721.029C723.109 388 724.709 388.48 725.829 389.44C727.109 390.4 728.069 391.68 728.709 393.28L787.989 548.56C788.309 549.52 788.469 550.4 788.469 551.2C788.469 552.48 787.989 553.6 787.029 554.56C786.069 555.52 784.949 556 783.669 556H771.429C769.509 556 768.069 555.52 767.109 554.56C766.309 553.6 765.749 552.72 765.429 551.92L752.229 517.84H673.509L660.309 551.92C660.149 552.72 659.589 553.6 658.629 554.56C657.669 555.52 656.229 556 654.309 556H642.069ZM680.469 497.2H745.269L712.869 412L680.469 497.2ZM871.323 558.4C857.723 558.4 846.043 556.08 836.283 551.44C826.523 546.64 819.003 539.36 813.723 529.6C808.443 519.68 805.483 507.28 804.843 492.4C804.683 485.36 804.603 478.64 804.603 472.24C804.603 465.68 804.683 458.88 804.843 451.84C805.483 437.12 808.523 424.88 813.963 415.12C819.563 405.2 827.243 397.84 837.003 393.04C846.923 388.08 858.363 385.6 871.323 385.6C884.443 385.6 895.883 388.08 905.643 393.04C915.563 397.84 923.323 405.2 928.923 415.12C934.523 424.88 937.563 437.12 938.043 451.84C938.363 458.88 938.523 465.68 938.523 472.24C938.523 478.64 938.363 485.36 938.043 492.4C937.563 507.28 934.603 519.68 929.163 529.6C923.883 539.36 916.363 546.64 906.603 551.44C896.843 556.08 885.083 558.4 871.323 558.4ZM871.323 538C883.643 538 893.643 534.32 901.323 526.96C909.163 519.6 913.403 507.68 914.043 491.2C914.363 484 914.523 477.6 914.523 472C914.523 466.24 914.363 459.84 914.043 452.8C913.723 441.76 911.643 432.8 907.803 425.92C904.123 419.04 899.163 414 892.923 410.8C886.683 407.6 879.483 406 871.323 406C863.483 406 856.443 407.6 850.203 410.8C843.963 414 838.923 419.04 835.083 425.92C831.403 432.8 829.323 441.76 828.843 452.8C828.683 459.84 828.603 466.24 828.603 472C828.603 477.6 828.683 484 828.843 491.2C829.483 507.68 833.723 519.6 841.563 526.96C849.403 534.32 859.323 538 871.323 538Z" fill="#131723"/>
<path d="M383.36 771.4C368.64 771.4 356.4 768.68 346.64 763.24C337.04 757.8 329.76 750.2 324.8 740.44C319.84 730.68 317.12 719.32 316.64 706.36C316.48 699.8 316.4 692.76 316.4 685.24C316.4 677.72 316.48 670.52 316.64 663.64C317.12 650.68 319.84 639.32 324.8 629.56C329.76 619.8 337.04 612.2 346.64 606.76C356.4 601.32 368.64 598.6 383.36 598.6C394.4 598.6 404.08 600.12 412.4 603.16C420.72 606.2 427.6 610.28 433.04 615.4C438.64 620.52 442.88 626.28 445.76 632.68C448.64 638.92 450.24 645.4 450.56 652.12C450.72 653.56 450.24 654.76 449.12 655.72C448.16 656.68 446.96 657.16 445.52 657.16H432.32C430.88 657.16 429.6 656.76 428.48 655.96C427.52 655.16 426.8 653.72 426.32 651.64C423.6 639.16 418.48 630.6 410.96 625.96C403.6 621.32 394.32 619 383.12 619C370.32 619 360.16 622.68 352.64 630.04C345.12 637.24 341.04 648.84 340.4 664.84C339.92 677.96 339.92 691.4 340.4 705.16C341.04 721.16 345.12 732.84 352.64 740.2C360.16 747.4 370.32 751 383.12 751C394.32 751 403.6 748.68 410.96 744.04C418.48 739.4 423.6 730.84 426.32 718.36C426.8 716.28 427.52 714.84 428.48 714.04C429.6 713.24 430.88 712.84 432.32 712.84H445.52C446.96 712.84 448.16 713.32 449.12 714.28C450.24 715.24 450.72 716.44 450.56 717.88C450.24 724.6 448.64 731.16 445.76 737.56C442.88 743.8 438.64 749.48 433.04 754.6C427.6 759.72 420.72 763.8 412.4 766.84C404.08 769.88 394.4 771.4 383.36 771.4ZM469.803 769C468.523 769 467.403 768.52 466.443 767.56C465.483 766.6 465.003 765.48 465.003 764.2C465.003 763.4 465.083 762.52 465.243 761.56L524.763 606.28C525.403 604.68 526.283 603.4 527.403 602.44C528.523 601.48 530.203 601 532.443 601H548.763C550.843 601 552.443 601.48 553.563 602.44C554.843 603.4 555.803 604.68 556.443 606.28L615.723 761.56C616.043 762.52 616.203 763.4 616.203 764.2C616.203 765.48 615.723 766.6 614.763 767.56C613.803 768.52 612.683 769 611.403 769H599.163C597.243 769 595.803 768.52 594.843 767.56C594.043 766.6 593.483 765.72 593.163 764.92L579.963 730.84H501.243L488.043 764.92C487.883 765.72 487.323 766.6 486.363 767.56C485.403 768.52 483.963 769 482.043 769H469.803ZM508.203 710.2H573.003L540.603 625L508.203 710.2ZM699.298 771.4C684.578 771.4 672.338 768.68 662.578 763.24C652.978 757.8 645.698 750.2 640.738 740.44C635.778 730.68 633.058 719.32 632.578 706.36C632.418 699.8 632.338 692.76 632.338 685.24C632.338 677.72 632.418 670.52 632.578 663.64C633.058 650.68 635.778 639.32 640.738 629.56C645.698 619.8 652.978 612.2 662.578 606.76C672.338 601.32 684.578 598.6 699.298 598.6C710.338 598.6 720.018 600.12 728.338 603.16C736.658 606.2 743.538 610.28 748.978 615.4C754.578 620.52 758.818 626.28 761.698 632.68C764.578 638.92 766.178 645.4 766.498 652.12C766.658 653.56 766.178 654.76 765.058 655.72C764.098 656.68 762.898 657.16 761.458 657.16H748.258C746.818 657.16 745.538 656.76 744.418 655.96C743.458 655.16 742.738 653.72 742.258 651.64C739.538 639.16 734.418 630.6 726.898 625.96C719.538 621.32 710.258 619 699.058 619C686.258 619 676.098 622.68 668.578 630.04C661.058 637.24 656.978 648.84 656.338 664.84C655.858 677.96 655.858 691.4 656.338 705.16C656.978 721.16 661.058 732.84 668.578 740.2C676.098 747.4 686.258 751 699.058 751C710.258 751 719.538 748.68 726.898 744.04C734.418 739.4 739.538 730.84 742.258 718.36C742.738 716.28 743.458 714.84 744.418 714.04C745.538 713.24 746.818 712.84 748.258 712.84H761.458C762.898 712.84 764.098 713.32 765.058 714.28C766.178 715.24 766.658 716.44 766.498 717.88C766.178 724.6 764.578 731.16 761.698 737.56C758.818 743.8 754.578 749.48 748.978 754.6C743.538 759.72 736.658 763.8 728.338 766.84C720.018 769.88 710.338 771.4 699.298 771.4ZM785.741 769C784.461 769 783.341 768.52 782.381 767.56C781.421 766.6 780.941 765.48 780.941 764.2C780.941 763.4 781.021 762.52 781.181 761.56L840.701 606.28C841.341 604.68 842.221 603.4 843.341 602.44C844.461 601.48 846.141 601 848.381 601H864.701C866.781 601 868.381 601.48 869.501 602.44C870.781 603.4 871.741 604.68 872.381 606.28L931.661 761.56C931.981 762.52 932.141 763.4 932.141 764.2C932.141 765.48 931.661 766.6 930.701 767.56C929.741 768.52 928.621 769 927.341 769H915.101C913.181 769 911.741 768.52 910.781 767.56C909.981 766.6 909.421 765.72 909.101 764.92L895.901 730.84H817.181L803.981 764.92C803.821 765.72 803.261 766.6 802.301 767.56C801.341 768.52 799.901 769 797.981 769H785.741ZM824.141 710.2H888.941L856.541 625L824.141 710.2ZM1015 771.4C1001.4 771.4 989.715 769.08 979.955 764.44C970.195 759.64 962.675 752.36 957.395 742.6C952.115 732.68 949.155 720.28 948.515 705.4C948.355 698.36 948.275 691.64 948.275 685.24C948.275 678.68 948.355 671.88 948.515 664.84C949.155 650.12 952.195 637.88 957.635 628.12C963.235 618.2 970.915 610.84 980.675 606.04C990.595 601.08 1002.04 598.6 1015 598.6C1028.12 598.6 1039.56 601.08 1049.32 606.04C1059.24 610.84 1067 618.2 1072.6 628.12C1078.2 637.88 1081.24 650.12 1081.72 664.84C1082.04 671.88 1082.2 678.68 1082.2 685.24C1082.2 691.64 1082.04 698.36 1081.72 705.4C1081.24 720.28 1078.28 732.68 1072.84 742.6C1067.56 752.36 1060.04 759.64 1050.28 764.44C1040.52 769.08 1028.76 771.4 1015 771.4ZM1015 751C1027.32 751 1037.32 747.32 1045 739.96C1052.84 732.6 1057.08 720.68 1057.72 704.2C1058.04 697 1058.2 690.6 1058.2 685C1058.2 679.24 1058.04 672.84 1057.72 665.8C1057.4 654.76 1055.32 645.8 1051.48 638.92C1047.8 632.04 1042.84 627 1036.6 623.8C1030.36 620.6 1023.16 619 1015 619C1007.16 619 1000.12 620.6 993.875 623.8C987.635 627 982.595 632.04 978.755 638.92C975.075 645.8 972.995 654.76 972.515 665.8C972.355 672.84 972.275 679.24 972.275 685C972.275 690.6 972.355 697 972.515 704.2C973.155 720.68 977.395 732.6 985.235 739.96C993.075 747.32 1003 751 1015 751Z" fill="#131723"/>
<path d="M383.381 951.48C378.581 951.48 374.261 950.392 370.421 948.216C366.645 946.04 363.669 943.032 361.493 939.192C359.317 935.288 358.229 930.808 358.229 925.752C358.229 920.632 359.317 916.152 361.493 912.312C363.669 908.472 366.645 905.496 370.421 903.384C374.261 901.208 378.581 900.12 383.381 900.12C387.797 900.12 391.733 901.112 395.189 903.096C398.709 905.08 401.493 907.992 403.541 911.832C405.653 915.608 406.708 920.248 406.708 925.752C406.708 931.192 405.685 935.832 403.637 939.672C401.589 943.512 398.805 946.456 395.285 948.504C391.829 950.488 387.861 951.48 383.381 951.48ZM383.861 945.432C387.445 945.432 390.645 944.632 393.461 943.032C396.341 941.368 398.581 939.064 400.181 936.12C401.845 933.112 402.677 929.656 402.677 925.752C402.677 921.784 401.845 918.328 400.181 915.384C398.581 912.44 396.341 910.168 393.461 908.568C390.645 906.904 387.445 906.072 383.861 906.072C380.341 906.072 377.173 906.904 374.357 908.568C371.541 910.168 369.301 912.44 367.637 915.384C365.973 918.328 365.141 921.784 365.141 925.752C365.141 929.656 365.973 933.112 367.637 936.12C369.301 939.064 371.541 941.368 374.357 943.032C377.173 944.632 380.341 945.432 383.861 945.432ZM402.869 951V935.832L403.541 925.656L402.581 915.48V879.768H409.397V951H402.869ZM449.787 951.48C444.539 951.48 439.931 950.392 435.963 948.216C431.995 945.976 428.891 942.936 426.651 939.096C424.411 935.192 423.291 930.744 423.291 925.752C423.291 920.76 424.347 916.344 426.459 912.504C428.635 908.664 431.579 905.656 435.291 903.48C439.067 901.24 443.291 900.12 447.963 900.12C452.699 900.12 456.891 901.208 460.539 903.384C464.251 905.496 467.163 908.504 469.275 912.408C471.387 916.248 472.443 920.696 472.443 925.752C472.443 926.072 472.411 926.424 472.347 926.808C472.347 927.128 472.347 927.48 472.347 927.864H428.475V922.776H468.699L466.011 924.792C466.011 921.144 465.211 917.912 463.611 915.096C462.075 912.216 459.963 909.976 457.275 908.376C454.587 906.776 451.483 905.976 447.963 905.976C444.507 905.976 441.403 906.776 438.651 908.376C435.899 909.976 433.755 912.216 432.219 915.096C430.683 917.976 429.915 921.272 429.915 924.984V926.04C429.915 929.88 430.747 933.272 432.411 936.216C434.139 939.096 436.507 941.368 439.515 943.032C442.587 944.632 446.075 945.432 449.979 945.432C453.051 945.432 455.899 944.888 458.523 943.8C461.211 942.712 463.515 941.048 465.435 938.808L469.275 943.224C467.035 945.912 464.219 947.96 460.827 949.368C457.499 950.776 453.819 951.48 449.787 951.48ZM532.85 951.48C527.602 951.48 522.994 950.392 519.026 948.216C515.058 945.976 511.954 942.936 509.714 939.096C507.474 935.192 506.354 930.744 506.354 925.752C506.354 920.76 507.41 916.344 509.522 912.504C511.698 908.664 514.642 905.656 518.354 903.48C522.13 901.24 526.354 900.12 531.026 900.12C535.762 900.12 539.954 901.208 543.602 903.384C547.314 905.496 550.226 908.504 552.338 912.408C554.45 916.248 555.506 920.696 555.506 925.752C555.506 926.072 555.474 926.424 555.41 926.808C555.41 927.128 555.41 927.48 555.41 927.864H511.538V922.776H551.762L549.074 924.792C549.074 921.144 548.274 917.912 546.674 915.096C545.138 912.216 543.026 909.976 540.338 908.376C537.65 906.776 534.546 905.976 531.026 905.976C527.57 905.976 524.466 906.776 521.714 908.376C518.962 909.976 516.818 912.216 515.282 915.096C513.746 917.976 512.978 921.272 512.978 924.984V926.04C512.978 929.88 513.81 933.272 515.474 936.216C517.202 939.096 519.57 941.368 522.578 943.032C525.65 944.632 529.138 945.432 533.042 945.432C536.114 945.432 538.962 944.888 541.586 943.8C544.274 942.712 546.578 941.048 548.498 938.808L552.338 943.224C550.098 945.912 547.282 947.96 543.89 949.368C540.562 950.776 536.882 951.48 532.85 951.48ZM582.915 951.48C578.755 951.48 574.819 950.904 571.107 949.752C567.395 948.536 564.483 947.032 562.371 945.24L565.443 939.864C567.491 941.4 570.115 942.744 573.315 943.896C576.515 944.984 579.875 945.528 583.395 945.528C588.195 945.528 591.651 944.792 593.763 943.32C595.875 941.784 596.931 939.768 596.931 937.272C596.931 935.416 596.323 933.976 595.107 932.952C593.955 931.864 592.419 931.064 590.499 930.552C588.579 929.976 586.435 929.496 584.067 929.112C581.699 928.728 579.331 928.28 576.963 927.768C574.659 927.256 572.547 926.52 570.627 925.56C568.707 924.536 567.139 923.16 565.923 921.432C564.771 919.704 564.195 917.4 564.195 914.52C564.195 911.768 564.963 909.304 566.499 907.128C568.035 904.952 570.275 903.256 573.219 902.04C576.227 900.76 579.875 900.12 584.163 900.12C587.427 900.12 590.691 900.568 593.955 901.464C597.219 902.296 599.907 903.416 602.019 904.824L599.043 910.296C596.803 908.76 594.403 907.672 591.843 907.032C589.283 906.328 586.723 905.976 584.163 905.976C579.619 905.976 576.259 906.776 574.083 908.376C571.971 909.912 570.915 911.896 570.915 914.328C570.915 916.248 571.491 917.752 572.643 918.84C573.859 919.928 575.427 920.792 577.347 921.432C579.331 922.008 581.475 922.488 583.779 922.872C586.147 923.256 588.483 923.736 590.787 924.312C593.155 924.824 595.299 925.56 597.219 926.52C599.203 927.416 600.771 928.728 601.923 930.456C603.139 932.12 603.747 934.328 603.747 937.08C603.747 940.024 602.915 942.584 601.251 944.76C599.651 946.872 597.283 948.536 594.147 949.752C591.075 950.904 587.331 951.48 582.915 951.48ZM642.27 951.48C637.918 951.48 633.982 950.488 630.462 948.504C626.942 946.456 624.126 943.544 622.014 939.768C619.966 935.928 618.942 931.256 618.942 925.752C618.942 920.248 619.966 915.608 622.014 911.832C624.062 907.992 626.846 905.08 630.366 903.096C633.886 901.112 637.854 900.12 642.27 900.12C647.07 900.12 651.358 901.208 655.134 903.384C658.974 905.496 661.982 908.504 664.158 912.408C666.334 916.248 667.422 920.696 667.422 925.752C667.422 930.872 666.334 935.352 664.158 939.192C661.982 943.032 658.974 946.04 655.134 948.216C651.358 950.392 647.07 951.48 642.27 951.48ZM616.254 969.624V900.6H622.782V915.768L622.11 925.848L623.07 936.024V969.624H616.254ZM641.79 945.432C645.374 945.432 648.574 944.632 651.39 943.032C654.206 941.368 656.446 939.064 658.11 936.12C659.774 933.112 660.606 929.656 660.606 925.752C660.606 921.848 659.774 918.424 658.11 915.48C656.446 912.536 654.206 910.232 651.39 908.568C648.574 906.904 645.374 906.072 641.79 906.072C638.206 906.072 634.974 906.904 632.094 908.568C629.278 910.232 627.038 912.536 625.374 915.48C623.774 918.424 622.974 921.848 622.974 925.752C622.974 929.656 623.774 933.112 625.374 936.12C627.038 939.064 629.278 941.368 632.094 943.032C634.974 944.632 638.206 945.432 641.79 945.432ZM702.725 951.48C697.477 951.48 692.869 950.392 688.901 948.216C684.933 945.976 681.829 942.936 679.589 939.096C677.349 935.192 676.229 930.744 676.229 925.752C676.229 920.76 677.285 916.344 679.397 912.504C681.573 908.664 684.517 905.656 688.229 903.48C692.005 901.24 696.229 900.12 700.901 900.12C705.637 900.12 709.829 901.208 713.477 903.384C717.189 905.496 720.101 908.504 722.213 912.408C724.325 916.248 725.381 920.696 725.381 925.752C725.381 926.072 725.349 926.424 725.285 926.808C725.285 927.128 725.285 927.48 725.285 927.864H681.413V922.776H721.637L718.949 924.792C718.949 921.144 718.149 917.912 716.549 915.096C715.013 912.216 712.901 909.976 710.213 908.376C707.525 906.776 704.421 905.976 700.901 905.976C697.445 905.976 694.341 906.776 691.589 908.376C688.837 909.976 686.693 912.216 685.157 915.096C683.621 917.976 682.853 921.272 682.853 924.984V926.04C682.853 929.88 683.685 933.272 685.349 936.216C687.077 939.096 689.445 941.368 692.453 943.032C695.525 944.632 699.013 945.432 702.917 945.432C705.989 945.432 708.837 944.888 711.461 943.8C714.149 942.712 716.453 941.048 718.373 938.808L722.213 943.224C719.973 945.912 717.157 947.96 713.765 949.368C710.437 950.776 706.757 951.48 702.725 951.48ZM760.182 951.48C755.19 951.48 750.71 950.392 746.742 948.216C742.838 945.976 739.766 942.936 737.526 939.096C735.286 935.192 734.166 930.744 734.166 925.752C734.166 920.696 735.286 916.248 737.526 912.408C739.766 908.568 742.838 905.56 746.742 903.384C750.71 901.208 755.19 900.12 760.182 900.12C764.47 900.12 768.342 900.952 771.798 902.616C775.254 904.28 777.974 906.776 779.958 910.104L774.87 913.56C773.142 911 770.998 909.112 768.438 907.896C765.878 906.68 763.094 906.072 760.086 906.072C756.502 906.072 753.27 906.904 750.39 908.568C747.51 910.168 745.238 912.44 743.574 915.384C741.91 918.328 741.078 921.784 741.078 925.752C741.078 929.72 741.91 933.176 743.574 936.12C745.238 939.064 747.51 941.368 750.39 943.032C753.27 944.632 756.502 945.432 760.086 945.432C763.094 945.432 765.878 944.824 768.438 943.608C770.998 942.392 773.142 940.536 774.87 938.04L779.958 941.496C777.974 944.76 775.254 947.256 771.798 948.984C768.342 950.648 764.47 951.48 760.182 951.48ZM792.598 951V900.6H799.414V951H792.598ZM796.054 889.464C794.646 889.464 793.462 888.984 792.502 888.024C791.542 887.064 791.062 885.912 791.062 884.568C791.062 883.224 791.542 882.104 792.502 881.208C793.462 880.248 794.646 879.768 796.054 879.768C797.462 879.768 798.646 880.216 799.606 881.112C800.566 882.008 801.046 883.128 801.046 884.472C801.046 885.88 800.566 887.064 799.606 888.024C798.71 888.984 797.526 889.464 796.054 889.464ZM818.379 951V879.768H825.195V951H818.379ZM844.16 951V900.6H850.976V951H844.16ZM847.616 889.464C846.208 889.464 845.024 888.984 844.064 888.024C843.104 887.064 842.624 885.912 842.624 884.568C842.624 883.224 843.104 882.104 844.064 881.208C845.024 880.248 846.208 879.768 847.616 879.768C849.024 879.768 850.208 880.216 851.168 881.112C852.128 882.008 852.608 883.128 852.608 884.472C852.608 885.88 852.128 887.064 851.168 888.024C850.272 888.984 849.088 889.464 847.616 889.464ZM890.006 951.48C885.206 951.48 880.886 950.392 877.046 948.216C873.27 946.04 870.294 943.032 868.118 939.192C865.942 935.288 864.854 930.808 864.854 925.752C864.854 920.632 865.942 916.152 868.118 912.312C870.294 908.472 873.27 905.496 877.046 903.384C880.886 901.208 885.206 900.12 890.006 900.12C894.422 900.12 898.358 901.112 901.814 903.096C905.334 905.08 908.118 907.992 910.166 911.832C912.278 915.608 913.333 920.248 913.333 925.752C913.333 931.192 912.31 935.832 910.262 939.672C908.214 943.512 905.43 946.456 901.91 948.504C898.454 950.488 894.486 951.48 890.006 951.48ZM890.486 945.432C894.07 945.432 897.27 944.632 900.086 943.032C902.966 941.368 905.206 939.064 906.806 936.12C908.47 933.112 909.302 929.656 909.302 925.752C909.302 921.784 908.47 918.328 906.806 915.384C905.206 912.44 902.966 910.168 900.086 908.568C897.27 906.904 894.07 906.072 890.486 906.072C886.966 906.072 883.798 906.904 880.982 908.568C878.166 910.168 875.926 912.44 874.262 915.384C872.598 918.328 871.766 921.784 871.766 925.752C871.766 929.656 872.598 933.112 874.262 936.12C875.926 939.064 878.166 941.368 880.982 943.032C883.798 944.632 886.966 945.432 890.486 945.432ZM909.494 951V935.832L910.166 925.656L909.206 915.48V879.768H916.022V951H909.494ZM966.588 951V939.864L966.3 938.04V919.416C966.3 915.128 965.084 911.832 962.652 909.528C960.284 907.224 956.732 906.072 951.996 906.072C948.732 906.072 945.628 906.616 942.684 907.704C939.74 908.792 937.244 910.232 935.196 912.024L932.124 906.936C934.684 904.76 937.756 903.096 941.34 901.944C944.924 900.728 948.7 900.12 952.668 900.12C959.196 900.12 964.22 901.752 967.74 905.016C971.324 908.216 973.116 913.112 973.116 919.704V951H966.588ZM949.212 951.48C945.436 951.48 942.14 950.872 939.324 949.656C936.572 948.376 934.46 946.648 932.988 944.472C931.516 942.232 930.78 939.672 930.78 936.792C930.78 934.168 931.388 931.8 932.604 929.688C933.884 927.512 935.932 925.784 938.748 924.504C941.628 923.16 945.468 922.488 950.268 922.488H967.644V927.576H950.46C945.596 927.576 942.204 928.44 940.284 930.168C938.428 931.896 937.5 934.04 937.5 936.6C937.5 939.48 938.62 941.784 940.86 943.512C943.1 945.24 946.236 946.104 950.268 946.104C954.108 946.104 957.404 945.24 960.156 943.512C962.972 941.72 965.02 939.16 966.3 935.832L967.836 940.536C966.556 943.864 964.316 946.52 961.116 948.504C957.98 950.488 954.012 951.48 949.212 951.48ZM1011.69 951.48C1006.89 951.48 1002.57 950.392 998.733 948.216C994.957 946.04 991.981 943.032 989.805 939.192C987.629 935.288 986.541 930.808 986.541 925.752C986.541 920.632 987.629 916.152 989.805 912.312C991.981 908.472 994.957 905.496 998.733 903.384C1002.57 901.208 1006.89 900.12 1011.69 900.12C1016.11 900.12 1020.05 901.112 1023.5 903.096C1027.02 905.08 1029.81 907.992 1031.85 911.832C1033.97 915.608 1035.02 920.248 1035.02 925.752C1035.02 931.192 1034 935.832 1031.95 939.672C1029.9 943.512 1027.12 946.456 1023.6 948.504C1020.14 950.488 1016.17 951.48 1011.69 951.48ZM1012.17 945.432C1015.76 945.432 1018.96 944.632 1021.77 943.032C1024.65 941.368 1026.89 939.064 1028.49 936.12C1030.16 933.112 1030.99 929.656 1030.99 925.752C1030.99 921.784 1030.16 918.328 1028.49 915.384C1026.89 912.44 1024.65 910.168 1021.77 908.568C1018.96 906.904 1015.76 906.072 1012.17 906.072C1008.65 906.072 1005.49 906.904 1002.67 908.568C999.853 910.168 997.613 912.44 995.949 915.384C994.285 918.328 993.453 921.784 993.453 925.752C993.453 929.656 994.285 933.112 995.949 936.12C997.613 939.064 999.853 941.368 1002.67 943.032C1005.49 944.632 1008.65 945.432 1012.17 945.432ZM1031.18 951V935.832L1031.85 925.656L1030.89 915.48V879.768H1037.71V951H1031.18ZM420.873 1001.12C424.969 1001.12 428.553 1001.92 431.625 1003.52C434.761 1005.06 437.193 1007.42 438.921 1010.62C440.713 1013.82 441.609 1017.86 441.609 1022.72V1052H434.793V1023.39C434.793 1018.08 433.449 1014.08 430.761 1011.39C428.137 1008.64 424.425 1007.26 419.625 1007.26C416.041 1007.26 412.905 1008 410.217 1009.47C407.593 1010.88 405.545 1012.96 404.073 1015.71C402.665 1018.4 401.961 1021.66 401.961 1025.5V1052H395.145V1001.6H401.673V1015.42L400.617 1012.83C402.217 1009.18 404.777 1006.34 408.297 1004.29C411.817 1002.18 416.009 1001.12 420.873 1001.12ZM480.564 1052.48C475.7 1052.48 471.316 1051.39 467.412 1049.22C463.572 1046.98 460.532 1043.94 458.292 1040.1C456.052 1036.19 454.932 1031.74 454.932 1026.75C454.932 1021.7 456.052 1017.25 458.292 1013.41C460.532 1009.57 463.572 1006.56 467.412 1004.38C471.252 1002.21 475.636 1001.12 480.564 1001.12C485.556 1001.12 489.972 1002.21 493.812 1004.38C497.716 1006.56 500.756 1009.57 502.932 1013.41C505.172 1017.25 506.292 1021.7 506.292 1026.75C506.292 1031.74 505.172 1036.19 502.932 1040.1C500.756 1043.94 497.716 1046.98 493.812 1049.22C489.908 1051.39 485.492 1052.48 480.564 1052.48ZM480.564 1046.43C484.212 1046.43 487.444 1045.63 490.26 1044.03C493.076 1042.37 495.284 1040.06 496.884 1037.12C498.548 1034.11 499.38 1030.66 499.38 1026.75C499.38 1022.78 498.548 1019.33 496.884 1016.38C495.284 1013.44 493.076 1011.17 490.26 1009.57C487.444 1007.9 484.244 1007.07 480.66 1007.07C477.076 1007.07 473.876 1007.9 471.06 1009.57C468.244 1011.17 466.004 1013.44 464.34 1016.38C462.676 1019.33 461.844 1022.78 461.844 1026.75C461.844 1030.66 462.676 1034.11 464.34 1037.12C466.004 1040.06 468.244 1042.37 471.06 1044.03C473.876 1045.63 477.044 1046.43 480.564 1046.43ZM558.868 1052.48C554.708 1052.48 550.772 1051.9 547.06 1050.75C543.348 1049.54 540.436 1048.03 538.324 1046.24L541.396 1040.86C543.444 1042.4 546.068 1043.74 549.268 1044.9C552.468 1045.98 555.828 1046.53 559.348 1046.53C564.148 1046.53 567.604 1045.79 569.716 1044.32C571.828 1042.78 572.884 1040.77 572.884 1038.27C572.884 1036.42 572.276 1034.98 571.06 1033.95C569.908 1032.86 568.372 1032.06 566.452 1031.55C564.532 1030.98 562.388 1030.5 560.02 1030.11C557.652 1029.73 555.284 1029.28 552.916 1028.77C550.612 1028.26 548.5 1027.52 546.58 1026.56C544.66 1025.54 543.092 1024.16 541.876 1022.43C540.724 1020.7 540.148 1018.4 540.148 1015.52C540.148 1012.77 540.916 1010.3 542.452 1008.13C543.988 1005.95 546.228 1004.26 549.172 1003.04C552.18 1001.76 555.828 1001.12 560.116 1001.12C563.38 1001.12 566.644 1001.57 569.908 1002.46C573.172 1003.3 575.86 1004.42 577.972 1005.82L574.996 1011.3C572.756 1009.76 570.356 1008.67 567.796 1008.03C565.236 1007.33 562.676 1006.98 560.116 1006.98C555.572 1006.98 552.212 1007.78 550.036 1009.38C547.924 1010.91 546.868 1012.9 546.868 1015.33C546.868 1017.25 547.444 1018.75 548.596 1019.84C549.812 1020.93 551.38 1021.79 553.3 1022.43C555.284 1023.01 557.428 1023.49 559.732 1023.87C562.1 1024.26 564.436 1024.74 566.74 1025.31C569.108 1025.82 571.252 1026.56 573.172 1027.52C575.156 1028.42 576.724 1029.73 577.876 1031.46C579.092 1033.12 579.7 1035.33 579.7 1038.08C579.7 1041.02 578.868 1043.58 577.204 1045.76C575.604 1047.87 573.236 1049.54 570.1 1050.75C567.028 1051.9 563.284 1052.48 558.868 1052.48ZM612.751 1052.48C607.887 1052.48 603.503 1051.39 599.599 1049.22C595.759 1046.98 592.719 1043.94 590.479 1040.1C588.239 1036.19 587.119 1031.74 587.119 1026.75C587.119 1021.7 588.239 1017.25 590.479 1013.41C592.719 1009.57 595.759 1006.56 599.599 1004.38C603.439 1002.21 607.823 1001.12 612.751 1001.12C617.743 1001.12 622.159 1002.21 625.999 1004.38C629.903 1006.56 632.943 1009.57 635.119 1013.41C637.359 1017.25 638.479 1021.7 638.479 1026.75C638.479 1031.74 637.359 1036.19 635.119 1040.1C632.943 1043.94 629.903 1046.98 625.999 1049.22C622.095 1051.39 617.679 1052.48 612.751 1052.48ZM612.751 1046.43C616.399 1046.43 619.631 1045.63 622.447 1044.03C625.263 1042.37 627.471 1040.06 629.071 1037.12C630.735 1034.11 631.567 1030.66 631.567 1026.75C631.567 1022.78 630.735 1019.33 629.071 1016.38C627.471 1013.44 625.263 1011.17 622.447 1009.57C619.631 1007.9 616.431 1007.07 612.847 1007.07C609.263 1007.07 606.063 1007.9 603.247 1009.57C600.431 1011.17 598.191 1013.44 596.527 1016.38C594.863 1019.33 594.031 1022.78 594.031 1026.75C594.031 1030.66 594.863 1034.11 596.527 1037.12C598.191 1040.06 600.431 1042.37 603.247 1044.03C606.063 1045.63 609.231 1046.43 612.751 1046.43ZM652.395 1052V980.768H659.211V1052H652.395ZM698.72 1052.48C693.856 1052.48 689.472 1051.39 685.568 1049.22C681.728 1046.98 678.688 1043.94 676.448 1040.1C674.208 1036.19 673.088 1031.74 673.088 1026.75C673.088 1021.7 674.208 1017.25 676.448 1013.41C678.688 1009.57 681.728 1006.56 685.568 1004.38C689.408 1002.21 693.792 1001.12 698.72 1001.12C703.712 1001.12 708.128 1002.21 711.968 1004.38C715.872 1006.56 718.912 1009.57 721.088 1013.41C723.328 1017.25 724.448 1021.7 724.448 1026.75C724.448 1031.74 723.328 1036.19 721.088 1040.1C718.912 1043.94 715.872 1046.98 711.968 1049.22C708.064 1051.39 703.648 1052.48 698.72 1052.48ZM698.72 1046.43C702.368 1046.43 705.6 1045.63 708.416 1044.03C711.232 1042.37 713.44 1040.06 715.04 1037.12C716.704 1034.11 717.536 1030.66 717.536 1026.75C717.536 1022.78 716.704 1019.33 715.04 1016.38C713.44 1013.44 711.232 1011.17 708.416 1009.57C705.6 1007.9 702.4 1007.07 698.816 1007.07C695.232 1007.07 692.032 1007.9 689.216 1009.57C686.4 1011.17 684.16 1013.44 682.496 1016.38C680.832 1019.33 680 1022.78 680 1026.75C680 1030.66 680.832 1034.11 682.496 1037.12C684.16 1040.06 686.4 1042.37 689.216 1044.03C692.032 1045.63 695.2 1046.43 698.72 1046.43ZM784.416 1052.48C779.424 1052.48 774.944 1051.39 770.976 1049.22C767.072 1046.98 764 1043.94 761.76 1040.1C759.52 1036.19 758.4 1031.74 758.4 1026.75C758.4 1021.7 759.52 1017.25 761.76 1013.41C764 1009.57 767.072 1006.56 770.976 1004.38C774.944 1002.21 779.424 1001.12 784.416 1001.12C788.704 1001.12 792.576 1001.95 796.032 1003.62C799.488 1005.28 802.208 1007.78 804.192 1011.1L799.104 1014.56C797.376 1012 795.232 1010.11 792.672 1008.9C790.112 1007.68 787.328 1007.07 784.32 1007.07C780.736 1007.07 777.504 1007.9 774.624 1009.57C771.744 1011.17 769.472 1013.44 767.808 1016.38C766.144 1019.33 765.312 1022.78 765.312 1026.75C765.312 1030.72 766.144 1034.18 767.808 1037.12C769.472 1040.06 771.744 1042.37 774.624 1044.03C777.504 1045.63 780.736 1046.43 784.32 1046.43C787.328 1046.43 790.112 1045.82 792.672 1044.61C795.232 1043.39 797.376 1041.54 799.104 1039.04L804.192 1042.5C802.208 1045.76 799.488 1048.26 796.032 1049.98C792.576 1051.65 788.704 1052.48 784.416 1052.48ZM849.166 1052V1040.86L848.878 1039.04V1020.42C848.878 1016.13 847.662 1012.83 845.23 1010.53C842.862 1008.22 839.31 1007.07 834.574 1007.07C831.31 1007.07 828.206 1007.62 825.262 1008.7C822.318 1009.79 819.822 1011.23 817.774 1013.02L814.702 1007.94C817.262 1005.76 820.334 1004.1 823.918 1002.94C827.502 1001.73 831.278 1001.12 835.246 1001.12C841.774 1001.12 846.798 1002.75 850.318 1006.02C853.902 1009.22 855.694 1014.11 855.694 1020.7V1052H849.166ZM831.79 1052.48C828.014 1052.48 824.718 1051.87 821.902 1050.66C819.15 1049.38 817.038 1047.65 815.566 1045.47C814.094 1043.23 813.358 1040.67 813.358 1037.79C813.358 1035.17 813.966 1032.8 815.182 1030.69C816.462 1028.51 818.51 1026.78 821.326 1025.5C824.206 1024.16 828.046 1023.49 832.846 1023.49H850.222V1028.58H833.038C828.174 1028.58 824.782 1029.44 822.862 1031.17C821.006 1032.9 820.078 1035.04 820.078 1037.6C820.078 1040.48 821.198 1042.78 823.438 1044.51C825.678 1046.24 828.814 1047.1 832.846 1047.1C836.686 1047.1 839.982 1046.24 842.734 1044.51C845.55 1042.72 847.598 1040.16 848.878 1036.83L850.414 1041.54C849.134 1044.86 846.894 1047.52 843.694 1049.5C840.558 1051.49 836.59 1052.48 831.79 1052.48ZM875.359 1052V995.264C875.359 990.784 876.671 987.168 879.295 984.416C881.919 981.664 885.695 980.288 890.623 980.288C892.543 980.288 894.399 980.544 896.191 981.056C897.983 981.568 899.487 982.368 900.703 983.456L898.399 988.544C897.439 987.712 896.319 987.104 895.039 986.72C893.759 986.272 892.383 986.048 890.911 986.048C888.031 986.048 885.823 986.848 884.287 988.448C882.751 990.048 881.983 992.416 881.983 995.552V1003.23L882.175 1006.4V1052H875.359ZM866.335 1007.26V1001.6H897.535V1007.26H866.335ZM927.303 1052.48C922.055 1052.48 917.447 1051.39 913.479 1049.22C909.511 1046.98 906.407 1043.94 904.167 1040.1C901.927 1036.19 900.807 1031.74 900.807 1026.75C900.807 1021.76 901.863 1017.34 903.975 1013.5C906.151 1009.66 909.095 1006.66 912.807 1004.48C916.583 1002.24 920.807 1001.12 925.479 1001.12C930.215 1001.12 934.407 1002.21 938.055 1004.38C941.767 1006.5 944.679 1009.5 946.791 1013.41C948.903 1017.25 949.959 1021.7 949.959 1026.75C949.959 1027.07 949.927 1027.42 949.863 1027.81C949.863 1028.13 949.863 1028.48 949.863 1028.86H905.991V1023.78H946.215L943.527 1025.79C943.527 1022.14 942.727 1018.91 941.127 1016.1C939.591 1013.22 937.479 1010.98 934.791 1009.38C932.103 1007.78 928.999 1006.98 925.479 1006.98C922.023 1006.98 918.919 1007.78 916.167 1009.38C913.415 1010.98 911.271 1013.22 909.735 1016.1C908.199 1018.98 907.431 1022.27 907.431 1025.98V1027.04C907.431 1030.88 908.263 1034.27 909.927 1037.22C911.655 1040.1 914.023 1042.37 917.031 1044.03C920.103 1045.63 923.591 1046.43 927.495 1046.43C930.567 1046.43 933.415 1045.89 936.039 1044.8C938.727 1043.71 941.031 1042.05 942.951 1039.81L946.791 1044.22C944.551 1046.91 941.735 1048.96 938.343 1050.37C935.015 1051.78 931.335 1052.48 927.303 1052.48ZM964.504 1052.48C963.096 1052.48 961.88 1051.97 960.856 1050.94C959.896 1049.92 959.416 1048.67 959.416 1047.2C959.416 1045.66 959.896 1044.42 960.856 1043.46C961.88 1042.5 963.096 1042.02 964.504 1042.02C965.912 1042.02 967.096 1042.5 968.056 1043.46C969.08 1044.42 969.592 1045.66 969.592 1047.2C969.592 1048.67 969.08 1049.92 968.056 1050.94C967.096 1051.97 965.912 1052.48 964.504 1052.48ZM984.848 1052.48C983.44 1052.48 982.224 1051.97 981.2 1050.94C980.24 1049.92 979.76 1048.67 979.76 1047.2C979.76 1045.66 980.24 1044.42 981.2 1043.46C982.224 1042.5 983.44 1042.02 984.848 1042.02C986.256 1042.02 987.44 1042.5 988.4 1043.46C989.424 1044.42 989.936 1045.66 989.936 1047.2C989.936 1048.67 989.424 1049.92 988.4 1050.94C987.44 1051.97 986.256 1052.48 984.848 1052.48ZM1005.19 1052.48C1003.78 1052.48 1002.57 1051.97 1001.54 1050.94C1000.58 1049.92 1000.1 1048.67 1000.1 1047.2C1000.1 1045.66 1000.58 1044.42 1001.54 1043.46C1002.57 1042.5 1003.78 1042.02 1005.19 1042.02C1006.6 1042.02 1007.78 1042.5 1008.74 1043.46C1009.77 1044.42 1010.28 1045.66 1010.28 1047.2C1010.28 1048.67 1009.77 1049.92 1008.74 1050.94C1007.78 1051.97 1006.6 1052.48 1005.19 1052.48Z" fill="#131723"/>
</g>
<defs>
<filter id="filter0_di_1_3" x="0" y="0" width="1400" height="1400" filterUnits="userSpaceOnUse" color-interpolation-filters="sRGB">
<feFlood flood-opacity="0" result="BackgroundImageFix"/>
<feColorMatrix in="SourceAlpha" type="matrix" values="0 0 0 0 0 0 0 0 0 0 0 0 0 0 0 0 0 0 127 0" result="hardAlpha"/>
<feOffset/>
<feGaussianBlur stdDeviation="100"/>
<feComposite in2="hardAlpha" operator="out"/>
<feColorMatrix type="matrix" values="0 0 0 0 1 0 0 0 0 1 0 0 0 0 0.8875 0 0 0 0.5 0"/>
<feBlend mode="normal" in2="BackgroundImageFix" result="effect1_dropShadow_1_3"/>
<feBlend mode="normal" in="SourceGraphic" in2="effect1_dropShadow_1_3" result="shape"/>
<feColorMatrix in="SourceAlpha" type="matrix" values="0 0 0 0 0 0 0 0 0 0 0 0 0 0 0 0 0 0 127 0" result="hardAlpha"/>
<feOffset/>
<feGaussianBlur stdDeviation="50"/>
<feComposite in2="hardAlpha" operator="arithmetic" k2="-1" k3="1"/>
<feColorMatrix type="matrix" values="0 0 0 0 0.0784314 0 0 0 0 0.0941176 0 0 0 0 0.141176 0 0 0 0.5 0"/>
<feBlend mode="normal" in2="shape" result="effect2_innerShadow_1_3"/>
</filter>
</defs>
</svg>
